<svg data-v-fde0c5aa="" xmlns="http://www.w3.org/2000/svg" viewBox="0 0 300 300" class="iconLeft"><!----><defs data-v-fde0c5aa=""><linearGradient data-v-fde0c5aa="" gradientTransform="rotate(25)" id="8fdc40ae-084e-430a-bda1-4280e81cb73d" x1="0%" y1="0%" x2="100%" y2="0%"><stop data-v-fde0c5aa="" offset="0%" stop-color="#0076DD" stop-opacity="1"></stop><stop data-v-fde0c5aa="" offset="100%" stop-color="#E600E9" stop-opacity="1"></stop></linearGradient></defs><rect data-v-fde0c5aa="" fill="url(#8fdc40ae-084e-430a-bda1-4280e81cb73d)" x="0" y="0" width="300px" height="300px" class="logo-background-square"></rect><defs data-v-fde0c5aa=""><!----></defs><g data-v-fde0c5aa="" id="e14d064a-0ce5-4f84-b66d-c4b18673ddb1" fill="#ffffff" transform="matrix(0.8504027724266052,0,0,0.8504027724266052,64.18478993484611,144.9739865840742)"><path d="M11.83 5.93L11.83 5.93L11.83 5.93Q11.83 6.84 11.65 7.54L11.65 7.54L11.65 7.54Q11.46 8.24 11.12 8.76L11.12 8.76L11.12 8.76Q10.77 9.28 10.28 9.64L10.28 9.64L10.28 9.64Q9.80 10.00 9.20 10.22L9.20 10.22L9.20 10.22Q8.60 10.44 7.90 10.54L7.90 10.54L7.90 10.54Q7.20 10.64 6.43 10.64L6.43 10.64L1.58 10.64L1.58 1.24L6.41 1.24L6.41 1.24Q7.57 1.24 8.56 1.47L8.56 1.47L8.56 1.47Q9.55 1.70 10.28 2.24L10.28 2.24L10.28 2.24Q11.01 2.78 11.42 3.68L11.42 3.68L11.42 3.68Q11.83 4.59 11.83 5.93ZM10.95 5.93L10.95 5.93L10.95 5.93Q10.95 5.17 10.80 4.58L10.80 4.58L10.80 4.58Q10.65 3.99 10.37 3.56L10.37 3.56L10.37 3.56Q10.09 3.12 9.69 2.83L9.69 2.83L9.69 2.83Q9.28 2.54 8.78 2.35L8.78 2.35L8.78 2.35Q8.27 2.17 7.68 2.10L7.68 2.10L7.68 2.10Q7.08 2.02 6.41 2.02L6.41 2.02L2.43 2.02L2.43 9.85L6.41 9.85L6.41 9.85Q7.42 9.85 8.25 9.67L8.25 9.67L8.25 9.67Q9.08 9.49 9.68 9.04L9.68 9.04L9.68 9.04Q10.28 8.59 10.62 7.84L10.62 7.84L10.62 7.84Q10.95 7.08 10.95 5.93ZM23.67 10.64L22.83 10.64L22.83 9.60L22.83 9.60Q22.33 9.86 21.71 10.09L21.71 10.09L21.71 10.09Q21.08 10.32 20.39 10.48L20.39 10.48L20.39 10.48Q19.69 10.64 18.96 10.73L18.96 10.73L18.96 10.73Q18.23 10.82 17.53 10.82L17.53 10.82L17.53 10.82Q16.61 10.82 15.88 10.66L15.88 10.66L15.88 10.66Q15.16 10.49 14.65 10.17L14.65 10.17L14.65 10.17Q14.14 9.84 13.87 9.36L13.87 9.36L13.87 9.36Q13.60 8.88 13.60 8.24L13.60 8.24L13.60 8.24Q13.60 7.62 13.91 7.13L13.91 7.13L13.91 7.13Q14.23 6.65 14.82 6.29L14.82 6.29L14.82 6.29Q15.41 5.93 16.24 5.68L16.24 5.68L16.24 5.68Q17.07 5.43 18.09 5.26L18.09 5.26L18.09 5.26Q19.12 5.09 20.31 4.97L20.31 4.97L20.31 4.97Q21.51 4.86 22.83 4.79L22.83 4.79L22.83 4.07L22.83 4.07Q22.83 3.63 22.66 3.29L22.66 3.29L22.66 3.29Q22.50 2.96 22.20 2.71L22.20 2.71L22.20 2.71Q21.91 2.46 21.51 2.29L21.51 2.29L21.51 2.29Q21.12 2.13 20.65 2.02L20.65 2.02L20.65 2.02Q20.19 1.92 19.68 1.88L19.68 1.88L19.68 1.88Q19.17 1.83 18.66 1.83L18.66 1.83L18.66 1.83Q17.97 1.83 17.40 1.90L17.40 1.90L17.40 1.90Q16.84 1.97 16.34 2.09L16.34 2.09L16.34 2.09Q15.85 2.21 15.40 2.37L15.40 2.37L15.40 2.37Q14.95 2.52 14.49 2.70L14.49 2.70L14.49 1.70L14.49 1.70Q15.44 1.45 16.52 1.26L16.52 1.26L16.52 1.26Q17.60 1.07 18.81 1.07L18.81 1.07L18.81 1.07Q19.83 1.07 20.72 1.25L20.72 1.25L20.72 1.25Q21.61 1.42 22.26 1.80L22.26 1.80L22.26 1.80Q22.92 2.19 23.30 2.79L23.30 2.79L23.30 2.79Q23.67 3.40 23.67 4.27L23.67 4.27L23.67 10.64ZM22.83 8.70L22.83 5.54L22.83 5.54Q20.59 5.67 19.01 5.89L19.01 5.89L19.01 5.89Q17.42 6.12 16.42 6.45L16.42 6.45L16.42 6.45Q15.42 6.77 14.95 7.21L14.95 7.21L14.95 7.21Q14.48 7.65 14.48 8.20L14.48 8.20L14.48 8.20Q14.48 8.65 14.71 9.00L14.71 9.00L14.71 9.00Q14.94 9.35 15.37 9.59L15.37 9.59L15.37 9.59Q15.80 9.82 16.41 9.94L16.41 9.94L16.41 9.94Q17.03 10.06 17.79 10.06L17.79 10.06L17.79 10.06Q18.25 10.06 18.73 10.01L18.73 10.01L18.73 10.01Q19.21 9.96 19.69 9.87L19.69 9.87L19.69 9.87Q20.17 9.78 20.63 9.65L20.63 9.65L20.63 9.65Q21.10 9.52 21.51 9.37L21.51 9.37L21.51 9.37Q21.92 9.22 22.25 9.05L22.25 9.05L22.25 9.05Q22.59 8.88 22.83 8.70L22.83 8.70ZM36.70 10.64L35.85 10.64L35.85 4.44L35.85 4.44Q35.85 3.66 35.64 3.15L35.64 3.15L35.64 3.15Q35.43 2.65 35.04 2.36L35.04 2.36L35.04 2.36Q34.66 2.06 34.10 1.95L34.10 1.95L34.10 1.95Q33.55 1.83 32.86 1.83L32.86 1.83L32.86 1.83Q32.06 1.83 31.29 2.03L31.29 2.03L31.29 2.03Q30.52 2.22 29.84 2.52L29.84 2.52L29.84 2.52Q29.16 2.82 28.58 3.18L28.58 3.18L28.58 3.18Q28.01 3.54 27.61 3.88L27.61 3.88L27.61 10.64L26.76 10.64L26.76 1.24L27.61 1.24L27.61 2.89L27.61 2.89Q28.09 2.59 28.67 2.26L28.67 2.26L28.67 2.26Q29.24 1.93 29.91 1.65L29.91 1.65L29.91 1.65Q30.58 1.37 31.34 1.20L31.34 1.20L31.34 1.20Q32.09 1.02 32.94 1.02L32.94 1.02L32.94 1.02Q33.89 1.02 34.59 1.25L34.59 1.25L34.59 1.25Q35.30 1.48 35.77 1.90L35.77 1.90L35.77 1.90Q36.24 2.32 36.47 2.92L36.47 2.92L36.47 2.92Q36.70 3.51 36.70 4.25L36.70 4.25L36.70 10.64ZM40.67 10.64L39.82 10.64L39.82 1.24L40.67 1.24L40.67 10.64ZM53.31 9.15L53.31 10.14L53.31 10.14Q52.73 10.32 52.24 10.45L52.24 10.45L52.24 10.45Q51.75 10.58 51.27 10.65L51.27 10.65L51.27 10.65Q50.79 10.73 50.30 10.77L50.30 10.77L50.30 10.77Q49.80 10.81 49.21 10.81L49.21 10.81L49.21 10.81Q47.82 10.81 46.71 10.47L46.71 10.47L46.71 10.47Q45.60 10.14 44.81 9.51L44.81 9.51L44.81 9.51Q44.03 8.89 43.61 8.00L43.61 8.00L43.61 8.00Q43.18 7.11 43.18 6.00L43.18 6.00L43.18 6.00Q43.18 4.93 43.59 4.03L43.59 4.03L43.59 4.03Q44.00 3.14 44.73 2.50L44.73 2.50L44.73 2.50Q45.46 1.85 46.48 1.50L46.48 1.50L46.48 1.50Q47.50 1.14 48.73 1.14L48.73 1.14L48.73 1.14Q50.00 1.14 51.00 1.48L51.00 1.48L51.00 1.48Q52.00 1.83 52.68 2.46L52.68 2.46L52.68 2.46Q53.37 3.10 53.72 4.00L53.72 4.00L53.72 4.00Q54.08 4.91 54.08 6.04L54.08 6.04L54.08 6.25L44.06 6.25L44.06 6.25Q44.14 7.13 44.50 7.83L44.50 7.83L44.50 7.83Q44.86 8.54 45.53 9.03L45.53 9.03L45.53 9.03Q46.20 9.52 47.17 9.79L47.17 9.79L47.17 9.79Q48.15 10.05 49.44 10.05L49.44 10.05L49.44 10.05Q50.00 10.05 50.57 9.97L50.57 9.97L50.57 9.97Q51.13 9.90 51.65 9.77L51.65 9.77L51.65 9.77Q52.17 9.65 52.60 9.48L52.60 9.48L52.60 9.48Q53.03 9.32 53.31 9.15L53.31 9.15ZM44.06 5.51L53.24 5.51L53.24 5.51Q53.19 4.79 52.92 4.14L52.92 4.14L52.92 4.14Q52.64 3.49 52.10 2.99L52.10 2.99L52.10 2.99Q51.56 2.49 50.72 2.19L50.72 2.19L50.72 2.19Q49.88 1.90 48.71 1.90L48.71 1.90L48.71 1.90Q47.61 1.90 46.79 2.19L46.79 2.19L46.79 2.19Q45.96 2.49 45.38 2.98L45.38 2.98L45.38 2.98Q44.81 3.48 44.48 4.13L44.48 4.13L44.48 4.13Q44.15 4.79 44.06 5.51L44.06 5.51ZM57.44 1.24L57.44 7.39L57.44 7.39Q57.44 8.03 57.54 8.48L57.54 8.48L57.54 8.48Q57.64 8.94 57.97 9.24L57.97 9.24L57.97 9.24Q58.30 9.53 58.92 9.67L58.92 9.67L58.92 9.67Q59.53 9.81 60.56 9.81L60.56 9.81L64.80 9.81L64.80 10.64L60.39 10.64L60.39 10.64Q59.26 10.64 58.53 10.46L58.53 10.46L58.53 10.46Q57.79 10.27 57.36 9.90L57.36 9.90L57.36 9.90Q56.92 9.52 56.75 8.93L56.75 8.93L56.75 8.93Q56.58 8.35 56.58 7.55L56.58 7.55L56.58 1.24L57.44 1.24ZM80.38 1.24L75.97 6.66L75.97 10.64L75.12 10.64L75.12 6.66L70.71 1.24L71.73 1.24L75.55 5.95L79.36 1.24L80.38 1.24ZM92.72 5.93L92.72 5.93L92.72 5.93Q92.72 6.84 92.53 7.54L92.53 7.54L92.53 7.54Q92.35 8.24 92.00 8.76L92.00 8.76L92.00 8.76Q91.66 9.28 91.17 9.64L91.17 9.64L91.17 9.64Q90.69 10.00 90.09 10.22L90.09 10.22L90.09 10.22Q89.49 10.44 88.79 10.54L88.79 10.54L88.79 10.54Q88.09 10.64 87.32 10.64L87.32 10.64L82.47 10.64L82.47 1.24L87.30 1.24L87.30 1.24Q88.46 1.24 89.45 1.47L89.45 1.47L89.45 1.47Q90.44 1.70 91.17 2.24L91.17 2.24L91.17 2.24Q91.90 2.78 92.31 3.68L92.31 3.68L92.31 3.68Q92.72 4.59 92.72 5.93ZM91.84 5.93L91.84 5.93L91.84 5.93Q91.84 5.17 91.69 4.58L91.69 4.58L91.69 4.58Q91.54 3.99 91.26 3.56L91.26 3.56L91.26 3.56Q90.98 3.12 90.58 2.83L90.58 2.83L90.58 2.83Q90.17 2.54 89.67 2.35L89.67 2.35L89.67 2.35Q89.16 2.17 88.57 2.10L88.57 2.10L88.57 2.10Q87.97 2.02 87.30 2.02L87.30 2.02L83.32 2.02L83.32 9.85L87.30 9.85L87.30 9.85Q88.31 9.85 89.14 9.67L89.14 9.67L89.14 9.67Q89.97 9.49 90.57 9.04L90.57 9.04L90.57 9.04Q91.17 8.59 91.51 7.84L91.51 7.84L91.51 7.84Q91.84 7.08 91.84 5.93ZM104.68 9.15L104.68 10.14L104.68 10.14Q104.10 10.32 103.61 10.45L103.61 10.45L103.61 10.45Q103.12 10.58 102.64 10.65L102.64 10.65L102.64 10.65Q102.16 10.73 101.67 10.77L101.67 10.77L101.67 10.77Q101.17 10.81 100.58 10.81L100.58 10.81L100.58 10.81Q99.20 10.81 98.08 10.47L98.08 10.47L98.08 10.47Q96.97 10.14 96.19 9.51L96.19 9.51L96.19 9.51Q95.40 8.89 94.98 8.00L94.98 8.00L94.98 8.00Q94.55 7.11 94.55 6.00L94.55 6.00L94.55 6.00Q94.55 4.93 94.96 4.03L94.96 4.03L94.96 4.03Q95.37 3.14 96.10 2.50L96.10 2.50L96.10 2.50Q96.83 1.85 97.85 1.50L97.85 1.50L97.85 1.50Q98.87 1.14 100.10 1.14L100.10 1.14L100.10 1.14Q101.38 1.14 102.38 1.48L102.38 1.48L102.38 1.48Q103.37 1.83 104.06 2.46L104.06 2.46L104.06 2.46Q104.74 3.10 105.10 4.00L105.10 4.00L105.10 4.00Q105.45 4.91 105.45 6.04L105.45 6.04L105.45 6.25L95.44 6.25L95.44 6.25Q95.51 7.13 95.87 7.83L95.87 7.83L95.87 7.83Q96.24 8.54 96.90 9.03L96.90 9.03L96.90 9.03Q97.57 9.52 98.54 9.79L98.54 9.79L98.54 9.79Q99.52 10.05 100.82 10.05L100.82 10.05L100.82 10.05Q101.37 10.05 101.94 9.97L101.94 9.97L101.94 9.97Q102.50 9.90 103.02 9.77L103.02 9.77L103.02 9.77Q103.54 9.65 103.97 9.48L103.97 9.48L103.97 9.48Q104.41 9.32 104.68 9.15L104.68 9.15ZM95.44 5.51L104.61 5.51L104.61 5.51Q104.56 4.79 104.29 4.14L104.29 4.14L104.29 4.14Q104.02 3.49 103.47 2.99L103.47 2.99L103.47 2.99Q102.93 2.49 102.09 2.19L102.09 2.19L102.09 2.19Q101.25 1.90 100.08 1.90L100.08 1.90L100.08 1.90Q98.98 1.90 98.16 2.19L98.16 2.19L98.16 2.19Q97.33 2.49 96.76 2.98L96.76 2.98L96.76 2.98Q96.18 3.48 95.85 4.13L95.85 4.13L95.85 4.13Q95.53 4.79 95.44 5.51L95.44 5.51ZM121.30 2.02L117.02 2.02L117.02 10.64L116.18 10.64L116.18 2.02L111.90 2.02L111.90 1.24L121.30 1.24L121.30 2.02ZM133.27 10.64L132.41 10.64L132.41 6.08L124.00 6.08L124.00 10.64L123.14 10.64L123.14 1.24L124.00 1.24L124.00 5.29L132.41 5.29L132.41 1.24L133.27 1.24L133.27 10.64ZM145.90 9.15L145.90 10.14L145.90 10.14Q145.33 10.32 144.83 10.45L144.83 10.45L144.83 10.45Q144.34 10.58 143.86 10.65L143.86 10.65L143.86 10.65Q143.38 10.73 142.89 10.77L142.89 10.77L142.89 10.77Q142.39 10.81 141.80 10.81L141.80 10.81L141.80 10.81Q140.42 10.81 139.30 10.47L139.30 10.47L139.30 10.47Q138.19 10.14 137.41 9.51L137.41 9.51L137.41 9.51Q136.62 8.89 136.20 8.00L136.20 8.00L136.20 8.00Q135.78 7.11 135.78 6.00L135.78 6.00L135.78 6.00Q135.78 4.93 136.18 4.03L136.18 4.03L136.18 4.03Q136.59 3.14 137.32 2.50L137.32 2.50L137.32 2.50Q138.05 1.85 139.07 1.50L139.07 1.50L139.07 1.50Q140.09 1.14 141.32 1.14L141.32 1.14L141.32 1.14Q142.60 1.14 143.60 1.48L143.60 1.48L143.60 1.48Q144.59 1.83 145.28 2.46L145.28 2.46L145.28 2.46Q145.96 3.10 146.32 4.00L146.32 4.00L146.32 4.00Q146.67 4.91 146.67 6.04L146.67 6.04L146.67 6.25L136.66 6.25L136.66 6.25Q136.73 7.13 137.09 7.83L137.09 7.83L137.09 7.83Q137.46 8.54 138.12 9.03L138.12 9.03L138.12 9.03Q138.79 9.52 139.76 9.79L139.76 9.79L139.76 9.79Q140.74 10.05 142.04 10.05L142.04 10.05L142.04 10.05Q142.59 10.05 143.16 9.97L143.16 9.97L143.16 9.97Q143.73 9.90 144.25 9.77L144.25 9.77L144.25 9.77Q144.76 9.65 145.20 9.48L145.20 9.48L145.20 9.48Q145.63 9.32 145.90 9.15L145.90 9.15ZM136.66 5.51L145.83 5.51L145.83 5.51Q145.78 4.79 145.51 4.14L145.51 4.14L145.51 4.14Q145.24 3.49 144.69 2.99L144.69 2.99L144.69 2.99Q144.15 2.49 143.31 2.19L143.31 2.19L143.31 2.19Q142.47 1.90 141.31 1.90L141.31 1.90L141.31 1.90Q140.21 1.90 139.38 2.19L139.38 2.19L139.38 2.19Q138.55 2.49 137.98 2.98L137.98 2.98L137.98 2.98Q137.40 3.48 137.07 4.13L137.07 4.13L137.07 4.13Q136.75 4.79 136.66 5.51L136.66 5.51ZM156.13 1.97L156.13 1.97L156.13 1.97Q155.93 1.91 155.58 1.84L155.58 1.84L155.58 1.84Q155.23 1.76 154.68 1.76L154.68 1.76L154.68 1.76Q153.91 1.76 153.24 1.95L153.24 1.95L153.24 1.95Q152.56 2.14 151.99 2.46L151.99 2.46L151.99 2.46Q151.41 2.78 150.92 3.21L150.92 3.21L150.92 3.21Q150.42 3.64 150.03 4.12L150.03 4.12L150.03 10.64L149.17 10.64L149.17 1.24L150.03 1.24L150.03 3.16L150.03 3.16Q150.49 2.69 151.02 2.29L151.02 2.29L151.02 2.29Q151.56 1.89 152.15 1.61L152.15 1.61L152.15 1.61Q152.75 1.33 153.40 1.17L153.40 1.17L153.40 1.17Q154.05 1.00 154.75 1.00L154.75 1.00L154.75 1.00Q154.99 1.00 155.18 1.02L155.18 1.02L155.18 1.02Q155.37 1.03 155.53 1.04L155.53 1.04L155.53 1.04Q155.70 1.06 155.84 1.08L155.84 1.08L155.84 1.08Q155.98 1.10 156.13 1.13L156.13 1.13L156.13 1.97ZM167.41 10.64L166.52 10.64L166.52 10.64Q166.46 9.87 166.15 9.25L166.15 9.25L166.15 9.25Q165.84 8.63 165.36 8.16L165.36 8.16L165.36 8.16Q164.88 7.68 164.25 7.33L164.25 7.33L164.25 7.33Q163.63 6.99 162.93 6.76L162.93 6.76L162.93 6.76Q162.24 6.54 161.49 6.43L161.49 6.43L161.49 6.43Q160.75 6.32 160.02 6.32L160.02 6.32L158.57 6.32L158.57 10.64L157.71 10.64L157.71 1.24L158.57 1.24L158.57 5.57L159.79 5.57L159.79 5.57Q160.52 5.57 161.25 5.44L161.25 5.44L161.25 5.44Q161.97 5.30 162.63 5.05L162.63 5.05L162.63 5.05Q163.29 4.79 163.86 4.42L163.86 4.42L163.86 4.42Q164.43 4.05 164.87 3.56L164.87 3.56L164.87 3.56Q165.31 3.08 165.59 2.50L165.59 2.50L165.59 2.50Q165.87 1.92 165.94 1.24L165.94 1.24L166.82 1.24L166.82 1.24Q166.75 1.99 166.49 2.59L166.49 2.59L166.49 2.59Q166.22 3.20 165.84 3.68L165.84 3.68L165.84 3.68Q165.46 4.17 164.99 4.54L164.99 4.54L164.99 4.54Q164.51 4.90 164.03 5.16L164.03 5.16L164.03 5.16Q163.54 5.43 163.08 5.60L163.08 5.60L163.08 5.60Q162.61 5.78 162.24 5.87L162.24 5.87L162.24 5.87Q162.71 5.94 163.26 6.09L163.26 6.09L163.26 6.09Q163.81 6.25 164.36 6.50L164.36 6.50L164.36 6.50Q164.91 6.76 165.43 7.13L165.43 7.13L165.43 7.13Q165.95 7.51 166.36 8.01L166.36 8.01L166.36 8.01Q166.78 8.52 167.06 9.17L167.06 9.17L167.06 9.17Q167.34 9.82 167.41 10.64L167.41 10.64ZM170.71 10.64L169.85 10.64L169.85 1.24L170.71 1.24L170.71 10.64ZM174.73 1.24L174.73 7.39L174.73 7.39Q174.73 8.03 174.83 8.48L174.83 8.48L174.83 8.48Q174.93 8.94 175.26 9.24L175.26 9.24L175.26 9.24Q175.59 9.53 176.21 9.67L176.21 9.67L176.21 9.67Q176.83 9.81 177.85 9.81L177.85 9.81L182.10 9.81L182.10 10.64L177.68 10.64L177.68 10.64Q176.55 10.64 175.82 10.46L175.82 10.46L175.82 10.46Q175.08 10.27 174.65 9.90L174.65 9.90L174.65 9.90Q174.21 9.52 174.04 8.93L174.04 8.93L174.04 8.93Q173.87 8.35 173.87 7.55L173.87 7.55L173.87 1.24L174.73 1.24ZM194.07 5.93L194.07 5.93L194.07 5.93Q194.07 6.84 193.88 7.54L193.88 7.54L193.88 7.54Q193.69 8.24 193.35 8.76L193.35 8.76L193.35 8.76Q193.01 9.28 192.52 9.64L192.52 9.64L192.52 9.64Q192.03 10.00 191.43 10.22L191.43 10.22L191.43 10.22Q190.83 10.44 190.13 10.54L190.13 10.54L190.13 10.54Q189.43 10.64 188.66 10.64L188.66 10.64L183.81 10.64L183.81 1.24L188.64 1.24L188.64 1.24Q189.80 1.24 190.79 1.47L190.79 1.47L190.79 1.47Q191.78 1.70 192.51 2.24L192.51 2.24L192.51 2.24Q193.24 2.78 193.65 3.68L193.65 3.68L193.65 3.68Q194.07 4.59 194.07 5.93ZM193.18 5.93L193.18 5.93L193.18 5.93Q193.18 5.17 193.03 4.58L193.03 4.58L193.03 4.58Q192.88 3.99 192.60 3.56L192.60 3.56L192.60 3.56Q192.32 3.12 191.92 2.83L191.92 2.83L191.92 2.83Q191.52 2.54 191.01 2.35L191.01 2.35L191.01 2.35Q190.50 2.17 189.91 2.10L189.91 2.10L189.91 2.10Q189.31 2.02 188.64 2.02L188.64 2.02L184.67 2.02L184.67 9.85L188.64 9.85L188.64 9.85Q189.65 9.85 190.48 9.67L190.48 9.67L190.48 9.67Q191.32 9.49 191.92 9.04L191.92 9.04L191.92 9.04Q192.51 8.59 192.85 7.84L192.85 7.84L192.85 7.84Q193.18 7.08 193.18 5.93ZM204.14 1.65L204.14 2.63L204.14 2.63Q203.88 2.50 203.53 2.35L203.53 2.35L203.53 2.35Q203.18 2.21 202.73 2.09L202.73 2.09L202.73 2.09Q202.28 1.98 201.72 1.90L201.72 1.90L201.72 1.90Q201.16 1.82 200.48 1.82L200.48 1.82L200.48 1.82Q199.65 1.82 199.00 1.91L199.00 1.91L199.00 1.91Q198.36 2.01 197.91 2.21L197.91 2.21L197.91 2.21Q197.46 2.41 197.23 2.72L197.23 2.72L197.23 2.72Q196.99 3.03 196.99 3.45L196.99 3.45L196.99 3.45Q196.99 3.81 197.21 4.07L197.21 4.07L197.21 4.07Q197.44 4.34 197.81 4.55L197.81 4.55L197.81 4.55Q198.19 4.75 198.70 4.92L198.70 4.92L198.70 4.92Q199.21 5.09 199.78 5.23L199.78 5.23L199.78 5.23Q200.35 5.38 200.96 5.53L200.96 5.53L200.96 5.53Q201.56 5.68 202.14 5.85L202.14 5.85L202.14 5.85Q202.71 6.03 203.22 6.24L203.22 6.24L203.22 6.24Q203.72 6.46 204.10 6.75L204.10 6.75L204.10 6.75Q204.48 7.03 204.71 7.40L204.71 7.40L204.71 7.40Q204.93 7.77 204.93 8.26L204.93 8.26L204.93 8.26Q204.93 8.78 204.73 9.18L204.73 9.18L204.73 9.18Q204.53 9.57 204.19 9.85L204.19 9.85L204.19 9.85Q203.85 10.14 203.40 10.33L203.40 10.33L203.40 10.33Q202.95 10.51 202.43 10.62L202.43 10.62L202.43 10.62Q201.91 10.73 201.36 10.78L201.36 10.78L201.36 10.78Q200.81 10.82 200.28 10.82L200.28 10.82L200.28 10.82Q199.06 10.82 198.06 10.64L198.06 10.64L198.06 10.64Q197.07 10.47 196.16 10.16L196.16 10.16L196.16 9.11L196.16 9.11Q197.09 9.67 198.13 9.87L198.13 9.87L198.13 9.87Q199.17 10.08 200.31 10.08L200.31 10.08L200.31 10.08Q201.11 10.08 201.80 9.98L201.80 9.98L201.80 9.98Q202.48 9.88 202.98 9.68L202.98 9.68L202.98 9.68Q203.48 9.47 203.76 9.13L203.76 9.13L203.76 9.13Q204.03 8.80 204.03 8.31L204.03 8.31L204.03 8.31Q204.03 7.92 203.81 7.63L203.81 7.63L203.81 7.63Q203.59 7.33 203.21 7.11L203.21 7.11L203.21 7.11Q202.83 6.89 202.32 6.72L202.32 6.72L202.32 6.72Q201.81 6.55 201.24 6.40L201.24 6.40L201.24 6.40Q200.68 6.25 200.07 6.11L200.07 6.11L200.07 6.11Q199.47 5.97 198.90 5.81L198.90 5.81L198.90 5.81Q198.33 5.65 197.82 5.44L197.82 5.44L197.82 5.44Q197.31 5.24 196.93 4.96L196.93 4.96L196.93 4.96Q196.55 4.68 196.33 4.32L196.33 4.32L196.33 4.32Q196.11 3.96 196.11 3.48L196.11 3.48L196.11 3.48Q196.11 3.01 196.29 2.64L196.29 2.64L196.29 2.64Q196.46 2.28 196.78 2.01L196.78 2.01L196.78 2.01Q197.09 1.74 197.50 1.56L197.50 1.56L197.50 1.56Q197.92 1.38 198.40 1.27L198.40 1.27L198.40 1.27Q198.87 1.17 199.38 1.12L199.38 1.12L199.38 1.12Q199.90 1.07 200.40 1.07L200.40 1.07L200.40 1.07Q200.94 1.07 201.43 1.12L201.43 1.12L201.43 1.12Q201.92 1.17 202.37 1.25L202.37 1.25L202.37 1.25Q202.83 1.33 203.26 1.43L203.26 1.43L203.26 1.43Q203.70 1.53 204.14 1.65L204.14 1.65ZM217.04 9.15L217.04 10.14L217.04 10.14Q216.47 10.32 215.97 10.45L215.97 10.45L215.97 10.45Q215.48 10.58 215.00 10.65L215.00 10.65L215.00 10.65Q214.53 10.73 214.03 10.77L214.03 10.77L214.03 10.77Q213.53 10.81 212.94 10.81L212.94 10.81L212.94 10.81Q211.56 10.81 210.44 10.47L210.44 10.47L210.44 10.47Q209.33 10.14 208.55 9.51L208.55 9.51L208.55 9.51Q207.76 8.89 207.34 8.00L207.34 8.00L207.34 8.00Q206.92 7.11 206.92 6.00L206.92 6.00L206.92 6.00Q206.92 4.93 207.32 4.03L207.32 4.03L207.32 4.03Q207.73 3.14 208.46 2.50L208.46 2.50L208.46 2.50Q209.19 1.85 210.21 1.50L210.21 1.50L210.21 1.50Q211.23 1.14 212.46 1.14L212.46 1.14L212.46 1.14Q213.74 1.14 214.74 1.48L214.74 1.48L214.74 1.48Q215.74 1.83 216.42 2.46L216.42 2.46L216.42 2.46Q217.10 3.10 217.46 4.00L217.46 4.00L217.46 4.00Q217.81 4.91 217.81 6.04L217.81 6.04L217.81 6.25L207.80 6.25L207.80 6.25Q207.87 7.13 208.24 7.83L208.24 7.83L208.24 7.83Q208.60 8.54 209.27 9.03L209.27 9.03L209.27 9.03Q209.93 9.52 210.91 9.79L210.91 9.79L210.91 9.79Q211.88 10.05 213.18 10.05L213.18 10.05L213.18 10.05Q213.73 10.05 214.30 9.97L214.30 9.97L214.30 9.97Q214.87 9.90 215.39 9.77L215.39 9.77L215.39 9.77Q215.91 9.65 216.34 9.48L216.34 9.48L216.34 9.48Q216.77 9.32 217.04 9.15L217.04 9.15ZM207.80 5.51L216.97 5.51L216.97 5.51Q216.92 4.79 216.65 4.14L216.65 4.14L216.65 4.14Q216.38 3.49 215.83 2.99L215.83 2.99L215.83 2.99Q215.29 2.49 214.45 2.19L214.45 2.19L214.45 2.19Q213.62 1.90 212.45 1.90L212.45 1.90L212.45 1.90Q211.35 1.90 210.52 2.19L210.52 2.19L210.52 2.19Q209.69 2.49 209.12 2.98L209.12 2.98L209.12 2.98Q208.54 3.48 208.22 4.13L208.22 4.13L208.22 4.13Q207.89 4.79 207.80 5.51L207.80 5.51ZM230.26 10.64L229.41 10.64L229.41 4.44L229.41 4.44Q229.41 3.66 229.20 3.15L229.20 3.15L229.20 3.15Q228.99 2.65 228.60 2.36L228.60 2.36L228.60 2.36Q228.22 2.06 227.66 1.95L227.66 1.95L227.66 1.95Q227.11 1.83 226.42 1.83L226.42 1.83L226.42 1.83Q225.62 1.83 224.85 2.03L224.85 2.03L224.85 2.03Q224.08 2.22 223.40 2.52L223.40 2.52L223.40 2.52Q222.71 2.82 222.14 3.18L222.14 3.18L222.14 3.18Q221.57 3.54 221.17 3.88L221.17 3.88L221.17 10.64L220.32 10.64L220.32 1.24L221.17 1.24L221.17 2.89L221.17 2.89Q221.65 2.59 222.23 2.26L222.23 2.26L222.23 2.26Q222.80 1.93 223.47 1.65L223.47 1.65L223.47 1.65Q224.14 1.37 224.90 1.20L224.90 1.20L224.90 1.20Q225.65 1.02 226.50 1.02L226.50 1.02L226.50 1.02Q227.45 1.02 228.15 1.25L228.15 1.25L228.15 1.25Q228.86 1.48 229.33 1.90L229.33 1.90L229.33 1.90Q229.80 2.32 230.03 2.92L230.03 2.92L230.03 2.92Q230.26 3.51 230.26 4.25L230.26 4.25L230.26 10.64Z"></path></g><defs data-v-fde0c5aa=""><!----></defs><g data-v-fde0c5aa="" id="c8f49677-6884-43eb-b4e8-9c05042f9864" stroke="none" fill="#ffffff" transform="matrix(0.14949044585227966,0,0,0.14949044585227966,38.791229632071975,142.52547791812623)"><path d="M50 77.1c3.6 0 7.1-.7 10.4-2.1 13.8-5.7 20.4-21.6 14.7-35.5C70.9 29.4 61 22.9 50 22.9c-3.6 0-7.1.7-10.4 2.1-13.8 5.7-20.4 21.6-14.7 35.5C29.1 70.6 39 77.1 50 77.1zM30.3 61.7h5.5c1.1 3.3 2.6 6.5 4.4 9.1-4-2-7.5-5.1-9.9-9.1zm41.4-19.1c1.7 5 1.6 10.2 0 14.9h-6c.5-2.5.8-5.1.8-7.5 0-2.5-.2-5-.7-7.4h5.9zM62.2 50c0 2.4-.3 5-1 7.5h-9V42.6h9.2c.6 2.3.8 4.8.8 7.4zM48 72.2c-3.1-1.4-5.9-5.6-7.7-10.5H48v10.5zm4.3 0V61.7H60c-1.9 5-4.7 9.2-7.7 10.5zm0-33.9V27.6c3.2 1.3 6.2 5.4 8 10.7h-8zM48 27.6v10.7h-8c1.8-5.3 4.8-9.4 8-10.7zm0 15v14.9h-9c-.6-2.5-1-5.1-1-7.5 0-2.5.3-5 .8-7.4H48zM34.7 57.4h-6.3c-1.7-5-1.6-10.2 0-14.9h6.1c-.5 2.5-.7 5-.7 7.5 0 2.3.3 4.8.9 7.4zm25.5 13.1c.6-.9 1.3-1.9 1.8-3 .9-1.8 1.8-3.7 2.4-5.8h5.2c-2.1 3.7-5.3 6.8-9.4 8.8zm9.5-32.2h-4.9c-.7-2.3-1.6-4.6-2.7-6.5-.4-.7-.8-1.3-1.2-1.9 3.6 1.9 6.6 4.8 8.8 8.4zm-30.2-8.7c-.5.7-.9 1.4-1.3 2.1-1.1 2-2 4.2-2.7 6.5h-5.2c2.2-3.5 5.3-6.5 9.2-8.6zm10-21.5c10.8-.1 21.1 3.9 29 11.2v-3.2c0-1.2.9-2.1 2.1-2.1 1.2 0 2.1.9 2.1 2.1l.1 8.3c0 1.2-.9 2.1-2.1 2.1l-8.3.1c-1.2 0-2.1-.9-2.1-2.1 0-1.2.9-2.1 2.1-2.1h3.2c-7.1-6.5-16.2-10.1-25.9-10-10.1.1-19.5 4.1-26.5 11.3-10.3 10.4-13.6 25.4-8.7 39.1.4 1.1-.2 2.3-1.3 2.7-.2.1-.5.1-.7.1-.9 0-1.7-.5-2-1.4C7.9 56.9 7.4 49 9 41.4c1.6-7.8 5.5-15 11.1-20.7 7.7-8 18.2-12.5 29.4-12.6zm27.4 68.2c10.2-10.4 13.4-25.4 8.5-39.1-.4-1.1.2-2.3 1.3-2.7 1.1-.4 2.3.2 2.7 1.3C92 43.1 92.6 51 91 58.6c-1.6 7.8-5.5 15-11.1 20.7-7.8 8-18.3 12.5-29.5 12.6h-.5c-10.7 0-20.7-4-28.5-11.2v3.2c0 1.2-.9 2.1-2.1 2.1-1.2 0-2.1-.9-2.1-2.1l-.1-8.3c0-.6.2-1.1.6-1.5.4-.4.9-.6 1.5-.6l8.3-.1c1.2 0 2.1.9 2.1 2.1 0 1.2-.9 2.1-2.1 2.1h-3.2c15.1 13.8 38.4 13.3 52.6-1.3z"></path></g><!----></svg>