<svg data-v-423bf9ae="" xmlns="http://www.w3.org/2000/svg" viewBox="0 0 60 60" class="icon"><!----><!----><!----><!----><g data-v-423bf9ae="" id="abe3a1ed-462f-45b2-9a03-5b220df1e83f" transform="matrix(0.7160171270370483,0,0,0.7160171270370483,-5.789668560028076,-5.800856590270996)" stroke="none" fill="black"><path d="M50 77.1c3.6 0 7.1-.7 10.4-2.1 13.8-5.7 20.4-21.6 14.7-35.5C70.9 29.4 61 22.9 50 22.9c-3.6 0-7.1.7-10.4 2.1-13.8 5.7-20.4 21.6-14.7 35.5C29.1 70.6 39 77.1 50 77.1zM30.3 61.7h5.5c1.1 3.3 2.6 6.5 4.4 9.1-4-2-7.5-5.1-9.9-9.1zm41.4-19.1c1.7 5 1.6 10.2 0 14.9h-6c.5-2.5.8-5.1.8-7.5 0-2.5-.2-5-.7-7.4h5.9zM62.2 50c0 2.4-.3 5-1 7.5h-9V42.6h9.2c.6 2.3.8 4.8.8 7.4zM48 72.2c-3.1-1.4-5.9-5.6-7.7-10.5H48v10.5zm4.3 0V61.7H60c-1.9 5-4.7 9.2-7.7 10.5zm0-33.9V27.6c3.2 1.3 6.2 5.4 8 10.7h-8zM48 27.6v10.7h-8c1.8-5.3 4.8-9.4 8-10.7zm0 15v14.9h-9c-.6-2.5-1-5.1-1-7.5 0-2.5.3-5 .8-7.4H48zM34.7 57.4h-6.3c-1.7-5-1.6-10.2 0-14.9h6.1c-.5 2.5-.7 5-.7 7.5 0 2.3.3 4.8.9 7.4zm25.5 13.1c.6-.9 1.3-1.9 1.8-3 .9-1.8 1.8-3.7 2.4-5.8h5.2c-2.1 3.7-5.3 6.8-9.4 8.8zm9.5-32.2h-4.9c-.7-2.3-1.6-4.6-2.7-6.5-.4-.7-.8-1.3-1.2-1.9 3.6 1.9 6.6 4.8 8.8 8.4zm-30.2-8.7c-.5.7-.9 1.4-1.3 2.1-1.1 2-2 4.2-2.7 6.5h-5.2c2.2-3.5 5.3-6.5 9.2-8.6zm10-21.5c10.8-.1 21.1 3.9 29 11.2v-3.2c0-1.2.9-2.1 2.1-2.1 1.2 0 2.1.9 2.1 2.1l.1 8.3c0 1.2-.9 2.1-2.1 2.1l-8.3.1c-1.2 0-2.1-.9-2.1-2.1 0-1.2.9-2.1 2.1-2.1h3.2c-7.1-6.5-16.2-10.1-25.9-10-10.1.1-19.5 4.1-26.5 11.3-10.3 10.4-13.6 25.4-8.7 39.1.4 1.1-.2 2.3-1.3 2.7-.2.1-.5.1-.7.1-.9 0-1.7-.5-2-1.4C7.9 56.9 7.4 49 9 41.4c1.6-7.8 5.5-15 11.1-20.7 7.7-8 18.2-12.5 29.4-12.6zm27.4 68.2c10.2-10.4 13.4-25.4 8.5-39.1-.4-1.1.2-2.3 1.3-2.7 1.1-.4 2.3.2 2.7 1.3C92 43.1 92.6 51 91 58.6c-1.6 7.8-5.5 15-11.1 20.7-7.8 8-18.3 12.5-29.5 12.6h-.5c-10.7 0-20.7-4-28.5-11.2v3.2c0 1.2-.9 2.1-2.1 2.1-1.2 0-2.1-.9-2.1-2.1l-.1-8.3c0-.6.2-1.1.6-1.5.4-.4.9-.6 1.5-.6l8.3-.1c1.2 0 2.1.9 2.1 2.1 0 1.2-.9 2.1-2.1 2.1h-3.2c15.1 13.8 38.4 13.3 52.6-1.3z"></path></g><!----></svg>